<svg width="192" height="60" viewBox="0 0 192 60" fill="none" xmlns="http://www.w3.org/2000/svg">
<path d="M1.95973 17.5297C0.142395 18.7381 -0.922764 21.2972 1.0851 24.357C3.09296 27.4167 31.7784 48.0703 32.8303 48.6438C33.8823 49.2172 34.9347 49.3127 37.6105 47.3053C40.2883 45.297 62.659 29.6099 63.2362 29.1381C64.1548 28.3878 64.3841 26.5563 63.2362 25.6959C63.2362 25.6959 36.135 44.628 35.2476 45.393C34.3602 46.1579 32.9797 44.915 33.2393 43.2896C33.4998 41.6642 33.6908 41.4727 37.133 38.9864C40.5753 36.5001 60.0923 22.6928 60.9778 22.0825C61.9805 21.3913 62.0047 20.1696 60.3618 19.0889C58.0783 17.5869 33.4019 1.20436 32.576 0.630892C31.7482 0.0574188 30.6031 -0.464522 28.8822 0.682897C27.1613 1.83079 5.29845 15.3091 1.95973 17.5297Z" fill="url(#paint0_linear_37_9651)"/>
<path d="M32.8304 50.6586C32.1402 50.2818 19.554 41.2613 10.412 34.2378V48.8819C10.4045 59.5718 42.6688 65.2833 53.3582 52.1422V38.1457C46.7919 42.777 39.1112 48.195 37.6106 49.3197C34.9347 51.3276 33.8824 51.2321 32.8304 50.6586Z" fill="url(#paint1_linear_37_9651)"/>
<path d="M46.4836 34.6018C46.4836 34.6018 51.2808 36.8531 51.6221 45.9129L49.298 45.3148L47.4381 49.0015C46.6514 39.0809 42.3676 37.6427 42.3676 37.6427L46.4836 34.6018Z" fill="url(#paint2_linear_37_9651)"/>
<path d="M89.0493 36H85.5356L77.5796 23.9782V36H74.0659V18.4567H77.5796L85.5356 30.5036V18.4567H89.0493V36ZM105.447 28.7468C105.447 29.2487 105.413 29.7005 105.347 30.102H95.1819C95.2656 31.1059 95.617 31.8923 96.236 32.4612C96.8551 33.0301 97.6164 33.3145 98.5199 33.3145C99.825 33.3145 100.754 32.754 101.306 31.633H105.096C104.694 32.9715 103.924 34.0758 102.787 34.9459C101.649 35.7992 100.252 36.2259 98.5952 36.2259C97.2567 36.2259 96.052 35.9331 94.9811 35.3475C93.927 34.7451 93.0988 33.9002 92.4965 32.8126C91.9109 31.725 91.618 30.4701 91.618 29.0479C91.618 27.609 91.9109 26.3457 92.4965 25.2582C93.0821 24.1706 93.9019 23.334 94.956 22.7484C96.0102 22.1628 97.2232 21.87 98.5952 21.87C99.917 21.87 101.097 22.1544 102.134 22.7233C103.188 23.2922 104 24.1037 104.568 25.1578C105.154 26.1952 105.447 27.3915 105.447 28.7468ZM101.808 27.7428C101.791 26.8393 101.465 26.1199 100.829 25.5844C100.193 25.0323 99.4151 24.7562 98.4948 24.7562C97.6248 24.7562 96.8886 25.0239 96.2862 25.5593C95.7006 26.078 95.3409 26.8059 95.207 27.7428H101.808ZM115.691 36L112.83 31.6832L110.295 36H106.531L111.073 29.0228L106.481 22.0959H110.446L113.282 26.3876L115.842 22.0959H119.607L115.039 29.0228L119.657 36H115.691ZM125.079 33.2142H130.851V36H121.565V18.4818H125.079V33.2142ZM146.01 28.7468C146.01 29.2487 145.977 29.7005 145.91 30.102H135.745C135.829 31.1059 136.18 31.8923 136.799 32.4612C137.418 33.0301 138.18 33.3145 139.083 33.3145C140.388 33.3145 141.317 32.754 141.869 31.633H145.659C145.257 32.9715 144.488 34.0758 143.35 34.9459C142.212 35.7992 140.815 36.2259 139.158 36.2259C137.82 36.2259 136.615 35.9331 135.544 35.3475C134.49 34.7451 133.662 33.9002 133.06 32.8126C132.474 31.725 132.181 30.4701 132.181 29.0479C132.181 27.609 132.474 26.3457 133.06 25.2582C133.645 24.1706 134.465 23.334 135.519 22.7484C136.573 22.1628 137.786 21.87 139.158 21.87C140.48 21.87 141.66 22.1544 142.697 22.7233C143.751 23.2922 144.563 24.1037 145.132 25.1578C145.717 26.1952 146.01 27.3915 146.01 28.7468ZM142.371 27.7428C142.354 26.8393 142.028 26.1199 141.392 25.5844C140.756 25.0323 139.978 24.7562 139.058 24.7562C138.188 24.7562 137.452 25.0239 136.849 25.5593C136.264 26.078 135.904 26.8059 135.77 27.7428H142.371ZM147.671 28.9977C147.671 27.5923 147.947 26.3457 148.5 25.2582C149.068 24.1706 149.83 23.334 150.783 22.7484C151.754 22.1628 152.833 21.87 154.021 21.87C155.058 21.87 155.962 22.0791 156.732 22.4974C157.518 22.9157 158.145 23.4428 158.614 24.0786V22.0959H162.153V36H158.614V33.9671C158.162 34.6196 157.535 35.1634 156.732 35.5984C155.945 36.0167 155.033 36.2259 153.996 36.2259C152.825 36.2259 151.754 35.9247 150.783 35.3224C149.83 34.72 149.068 33.8751 148.5 32.7875C147.947 31.6832 147.671 30.4199 147.671 28.9977ZM158.614 29.0479C158.614 28.1946 158.447 27.4668 158.112 26.8644C157.777 26.2453 157.326 25.7769 156.757 25.459C156.188 25.1243 155.577 24.957 154.925 24.957C154.272 24.957 153.67 25.116 153.117 25.4339C152.565 25.7518 152.114 26.2203 151.762 26.8393C151.428 27.4417 151.26 28.1611 151.26 28.9977C151.26 29.8343 151.428 30.5705 151.762 31.2063C152.114 31.8254 152.565 32.3023 153.117 32.6369C153.686 32.9715 154.289 33.1389 154.925 33.1389C155.577 33.1389 156.188 32.9799 156.757 32.662C157.326 32.3274 157.777 31.8589 158.112 31.2565C158.447 30.6375 158.614 29.9013 158.614 29.0479ZM169.098 24.2543C169.55 23.5181 170.135 22.9408 170.855 22.5225C171.591 22.1042 172.428 21.8951 173.365 21.8951V25.5844H172.436C171.332 25.5844 170.495 25.8438 169.926 26.3625C169.374 26.8812 169.098 27.7847 169.098 29.073V36H165.584V22.0959H169.098V24.2543ZM183.436 21.8951C185.093 21.8951 186.431 22.4221 187.452 23.4762C188.473 24.5136 188.983 25.9693 188.983 27.8432V36H185.469V28.3201C185.469 27.2158 185.193 26.3708 184.641 25.7852C184.089 25.1829 183.336 24.8817 182.382 24.8817C181.412 24.8817 180.642 25.1829 180.073 25.7852C179.521 26.3708 179.245 27.2158 179.245 28.3201V36H175.731V22.0959H179.245V23.8276C179.714 23.2253 180.307 22.7568 181.027 22.4221C181.763 22.0708 182.566 21.8951 183.436 21.8951Z" fill="url(#paint3_linear_37_9651)"/>
<path d="M75.2248 44.447H74.2613V48.7736H73.1749V44.447H72.5609V43.5685H73.1749V43.2001C73.1749 42.6018 73.3324 42.1673 73.6472 41.8965C73.9684 41.6194 74.4691 41.4808 75.1492 41.4808V42.3783C74.8218 42.3783 74.5919 42.4412 74.4596 42.5672C74.3274 42.6868 74.2613 42.8978 74.2613 43.2001V43.5685H75.2248V44.447ZM80.893 43.5685V48.7736H79.8161V48.1595C79.6461 48.3737 79.4225 48.5437 79.1454 48.6696C78.8746 48.7893 78.5849 48.8491 78.2763 48.8491C77.867 48.8491 77.4986 48.7641 77.1711 48.5941C76.8499 48.424 76.5948 48.1721 76.4059 47.8384C76.2233 47.5046 76.132 47.1015 76.132 46.6292V43.5685H77.1994V46.4686C77.1994 46.9346 77.3159 47.2936 77.5489 47.5455C77.782 47.7911 78.1 47.9139 78.503 47.9139C78.9061 47.9139 79.2241 47.7911 79.4571 47.5455C79.6965 47.2936 79.8161 46.9346 79.8161 46.4686V43.5685H80.893ZM83.5703 44.447V47.3282C83.5703 47.5235 83.6144 47.6652 83.7026 47.7533C83.797 47.8352 83.9545 47.8761 84.1749 47.8761H84.8361V48.7736H83.9859C83.501 48.7736 83.1295 48.6602 82.8713 48.4335C82.6131 48.2068 82.4839 47.8384 82.4839 47.3282V44.447H81.8699V43.5685H82.4839V42.2743H83.5703V43.5685H84.8361V44.447H83.5703ZM90.5425 43.5685V48.7736H89.4656V48.1595C89.2956 48.3737 89.072 48.5437 88.7949 48.6696C88.5241 48.7893 88.2344 48.8491 87.9258 48.8491C87.5165 48.8491 87.1481 48.7641 86.8206 48.5941C86.4994 48.424 86.2443 48.1721 86.0554 47.8384C85.8728 47.5046 85.7815 47.1015 85.7815 46.6292V43.5685H86.8489V46.4686C86.8489 46.9346 86.9654 47.2936 87.1984 47.5455C87.4314 47.7911 87.7495 47.9139 88.1525 47.9139C88.5556 47.9139 88.8736 47.7911 89.1066 47.5455C89.3459 47.2936 89.4656 46.9346 89.4656 46.4686V43.5685H90.5425ZM93.0403 44.3242C93.1977 44.0597 93.4056 43.8551 93.6638 43.7102C93.9283 43.5591 94.24 43.4835 94.599 43.4835V44.5982H94.325C93.9031 44.5982 93.5819 44.7053 93.3615 44.9194C93.1474 45.1335 93.0403 45.5051 93.0403 46.0341V48.7736H91.9634V43.5685H93.0403V44.3242ZM96.1368 42.8789C95.9415 42.8789 95.7778 42.8128 95.6455 42.6805C95.5133 42.5483 95.4472 42.3846 95.4472 42.1893C95.4472 41.9941 95.5133 41.8304 95.6455 41.6981C95.7778 41.5659 95.9415 41.4997 96.1368 41.4997C96.3257 41.4997 96.4863 41.5659 96.6185 41.6981C96.7508 41.8304 96.8169 41.9941 96.8169 42.1893C96.8169 42.3846 96.7508 42.5483 96.6185 42.6805C96.4863 42.8128 96.3257 42.8789 96.1368 42.8789ZM96.6658 43.5685V48.7736H95.5889V43.5685H96.6658ZM99.969 48.8586C99.5596 48.8586 99.1912 48.7862 98.8637 48.6413C98.5425 48.4902 98.2875 48.2886 98.0985 48.0367C97.9096 47.7785 97.8089 47.492 97.7963 47.1771H98.911C98.9298 47.3975 99.0338 47.5833 99.2227 47.7344C99.4179 47.8793 99.6604 47.9517 99.9501 47.9517C100.252 47.9517 100.485 47.895 100.649 47.7817C100.819 47.662 100.904 47.5109 100.904 47.3282C100.904 47.133 100.81 46.9882 100.621 46.8937C100.438 46.7992 100.145 46.6953 99.7422 46.582C99.3518 46.4749 99.0338 46.371 98.7881 46.2702C98.5425 46.1695 98.3284 46.0152 98.1458 45.8073C97.9694 45.5995 97.8813 45.3256 97.8813 44.9855C97.8813 44.7084 97.9631 44.4565 98.1269 44.2298C98.2906 43.9968 98.5236 43.8141 98.8259 43.6819C99.1345 43.5496 99.4872 43.4835 99.8839 43.4835C100.476 43.4835 100.951 43.6346 101.31 43.9369C101.676 44.2329 101.871 44.6391 101.896 45.1555H100.819C100.8 44.9225 100.706 44.7367 100.536 44.5982C100.366 44.4596 100.136 44.3904 99.8462 44.3904C99.5628 44.3904 99.3455 44.4439 99.1943 44.551C99.0432 44.658 98.9676 44.7997 98.9676 44.9761C98.9676 45.1146 99.018 45.2311 99.1188 45.3256C99.2195 45.42 99.3423 45.4956 99.4872 45.5523C99.632 45.6027 99.8462 45.6688 100.13 45.7507C100.507 45.8514 100.816 45.9553 101.055 46.0624C101.301 46.1632 101.512 46.3143 101.688 46.5158C101.865 46.7174 101.956 46.985 101.962 47.3188C101.962 47.6148 101.88 47.8793 101.717 48.1123C101.553 48.3453 101.32 48.5279 101.018 48.6602C100.722 48.7925 100.372 48.8586 99.969 48.8586ZM104.382 44.447V47.3282C104.382 47.5235 104.426 47.6652 104.514 47.7533C104.609 47.8352 104.766 47.8761 104.987 47.8761H105.648V48.7736H104.798C104.313 48.7736 103.941 48.6602 103.683 48.4335C103.425 48.2068 103.296 47.8384 103.296 47.3282V44.447H102.682V43.5685H103.296V42.2743H104.382V43.5685H105.648V44.447H104.382ZM107.188 42.8789C106.993 42.8789 106.83 42.8128 106.697 42.6805C106.565 42.5483 106.499 42.3846 106.499 42.1893C106.499 41.9941 106.565 41.8304 106.697 41.6981C106.83 41.5659 106.993 41.4997 107.188 41.4997C107.377 41.4997 107.538 41.5659 107.67 41.6981C107.802 41.8304 107.869 41.9941 107.869 42.1893C107.869 42.3846 107.802 42.5483 107.67 42.6805C107.538 42.8128 107.377 42.8789 107.188 42.8789ZM107.717 43.5685V48.7736H106.641V43.5685H107.717ZM108.772 46.1663C108.772 45.631 108.879 45.1618 109.094 44.7588C109.314 44.3494 109.616 44.0345 110 43.8141C110.385 43.5937 110.825 43.4835 111.323 43.4835C111.953 43.4835 112.472 43.6346 112.882 43.9369C113.297 44.2329 113.578 44.658 113.722 45.2122H112.56C112.466 44.954 112.315 44.7525 112.107 44.6076C111.899 44.4628 111.638 44.3904 111.323 44.3904C110.882 44.3904 110.529 44.5478 110.265 44.8627C110.007 45.1713 109.878 45.6058 109.878 46.1663C109.878 46.7268 110.007 47.1645 110.265 47.4794C110.529 47.7943 110.882 47.9517 111.323 47.9517C111.946 47.9517 112.359 47.6778 112.56 47.1299H113.722C113.571 47.6589 113.288 48.0808 112.872 48.3957C112.457 48.7043 111.94 48.8586 111.323 48.8586C110.825 48.8586 110.385 48.7484 110 48.5279C109.616 48.3012 109.314 47.9863 109.094 47.5833C108.879 47.1739 108.772 46.7016 108.772 46.1663ZM118.326 41.7831V48.7736H117.249V41.7831H118.326ZM124.511 46.0435C124.511 46.2387 124.498 46.4151 124.473 46.5725H120.496C120.527 46.9882 120.682 47.3219 120.959 47.5739C121.236 47.8258 121.576 47.9517 121.979 47.9517C122.558 47.9517 122.968 47.7093 123.207 47.2243H124.369C124.212 47.703 123.925 48.0966 123.509 48.4051C123.1 48.7074 122.59 48.8586 121.979 48.8586C121.482 48.8586 121.034 48.7484 120.638 48.5279C120.247 48.3012 119.939 47.9863 119.712 47.5833C119.491 47.1739 119.381 46.7016 119.381 46.1663C119.381 45.631 119.488 45.1618 119.702 44.7588C119.923 44.3494 120.228 44.0345 120.619 43.8141C121.016 43.5937 121.469 43.4835 121.979 43.4835C122.47 43.4835 122.908 43.5906 123.292 43.8047C123.676 44.0188 123.975 44.3211 124.19 44.7116C124.404 45.0957 124.511 45.5397 124.511 46.0435ZM123.387 45.7034C123.38 45.3067 123.239 44.9886 122.962 44.7493C122.684 44.51 122.341 44.3904 121.932 44.3904C121.56 44.3904 121.242 44.51 120.978 44.7493C120.713 44.9824 120.556 45.3004 120.505 45.7034H123.387ZM125.212 46.1474C125.212 45.6247 125.319 45.1618 125.533 44.7588C125.753 44.3557 126.049 44.044 126.421 43.8236C126.799 43.5969 127.214 43.4835 127.668 43.4835C128.077 43.4835 128.433 43.5654 128.735 43.7291C129.044 43.8866 129.289 44.0849 129.472 44.3242V43.5685H130.558V48.7736H129.472V47.9989C129.289 48.2446 129.041 48.4492 128.726 48.613C128.411 48.7767 128.052 48.8586 127.649 48.8586C127.202 48.8586 126.792 48.7452 126.421 48.5185C126.049 48.2855 125.753 47.9643 125.533 47.555C125.319 47.1393 125.212 46.6701 125.212 46.1474ZM129.472 46.1663C129.472 45.8073 129.396 45.4956 129.245 45.2311C129.1 44.9666 128.908 44.7651 128.669 44.6265C128.43 44.488 128.171 44.4187 127.894 44.4187C127.617 44.4187 127.359 44.488 127.12 44.6265C126.88 44.7588 126.685 44.9572 126.534 45.2217C126.389 45.4799 126.317 45.7885 126.317 46.1474C126.317 46.5064 126.389 46.8213 126.534 47.0921C126.685 47.3629 126.88 47.5707 127.12 47.7155C127.365 47.8541 127.624 47.9234 127.894 47.9234C128.171 47.9234 128.43 47.8541 128.669 47.7155C128.908 47.577 129.1 47.3755 129.245 47.111C129.396 46.8402 129.472 46.5253 129.472 46.1663ZM133.05 44.3242C133.207 44.0597 133.415 43.8551 133.673 43.7102C133.938 43.5591 134.249 43.4835 134.608 43.4835V44.5982H134.334C133.912 44.5982 133.591 44.7053 133.371 44.9194C133.157 45.1335 133.05 45.5051 133.05 46.0341V48.7736H131.973V43.5685H133.05V44.3242ZM138.224 43.4835C138.634 43.4835 138.999 43.5685 139.32 43.7386C139.648 43.9086 139.903 44.1605 140.085 44.4943C140.268 44.8281 140.359 45.2311 140.359 45.7034V48.7736H139.292V45.864C139.292 45.398 139.175 45.0422 138.942 44.7966C138.709 44.5447 138.391 44.4187 137.988 44.4187C137.585 44.4187 137.264 44.5447 137.025 44.7966C136.792 45.0422 136.675 45.398 136.675 45.864V48.7736H135.598V43.5685H136.675V44.1637C136.851 43.9495 137.075 43.7826 137.346 43.663C137.623 43.5433 137.916 43.4835 138.224 43.4835ZM142.281 42.8789C142.086 42.8789 141.922 42.8128 141.79 42.6805C141.657 42.5483 141.591 42.3846 141.591 42.1893C141.591 41.9941 141.657 41.8304 141.79 41.6981C141.922 41.5659 142.086 41.4997 142.281 41.4997C142.47 41.4997 142.63 41.5659 142.763 41.6981C142.895 41.8304 142.961 41.9941 142.961 42.1893C142.961 42.3846 142.895 42.5483 142.763 42.6805C142.63 42.8128 142.47 42.8789 142.281 42.8789ZM142.81 43.5685V48.7736H141.733V43.5685H142.81ZM146.85 43.4835C147.259 43.4835 147.625 43.5685 147.946 43.7386C148.273 43.9086 148.528 44.1605 148.711 44.4943C148.893 44.8281 148.985 45.2311 148.985 45.7034V48.7736H147.917V45.864C147.917 45.398 147.801 45.0422 147.568 44.7966C147.335 44.5447 147.017 44.4187 146.614 44.4187C146.211 44.4187 145.889 44.5447 145.65 44.7966C145.417 45.0422 145.301 45.398 145.301 45.864V48.7736H144.224V43.5685H145.301V44.1637C145.477 43.9495 145.701 43.7826 145.971 43.663C146.248 43.5433 146.541 43.4835 146.85 43.4835ZM152.456 43.4835C152.859 43.4835 153.214 43.5654 153.523 43.7291C153.838 43.8866 154.084 44.0849 154.26 44.3242V43.5685H155.346V48.8586C155.346 49.3372 155.245 49.7623 155.044 50.1339C154.842 50.5117 154.55 50.8077 154.165 51.0218C153.788 51.236 153.334 51.343 152.805 51.343C152.1 51.343 151.514 51.1761 151.048 50.8424C150.582 50.5149 150.318 50.0677 150.255 49.5009H151.322C151.404 49.7717 151.577 49.989 151.842 50.1528C152.112 50.3228 152.434 50.4078 152.805 50.4078C153.24 50.4078 153.589 50.2756 153.854 50.0111C154.124 49.7466 154.26 49.3624 154.26 48.8586V47.9895C154.077 48.2351 153.828 48.4429 153.514 48.613C153.205 48.7767 152.852 48.8586 152.456 48.8586C152.002 48.8586 151.587 48.7452 151.209 48.5185C150.837 48.2855 150.541 47.9643 150.321 47.555C150.107 47.1393 149.999 46.6701 149.999 46.1474C149.999 45.6247 150.107 45.1618 150.321 44.7588C150.541 44.3557 150.837 44.044 151.209 43.8236C151.587 43.5969 152.002 43.4835 152.456 43.4835ZM154.26 46.1663C154.26 45.8073 154.184 45.4956 154.033 45.2311C153.888 44.9666 153.696 44.7651 153.457 44.6265C153.218 44.488 152.959 44.4187 152.682 44.4187C152.405 44.4187 152.147 44.488 151.908 44.6265C151.668 44.7588 151.473 44.9572 151.322 45.2217C151.177 45.4799 151.105 45.7885 151.105 46.1474C151.105 46.5064 151.177 46.8213 151.322 47.0921C151.473 47.3629 151.668 47.5707 151.908 47.7155C152.153 47.8541 152.412 47.9234 152.682 47.9234C152.959 47.9234 153.218 47.8541 153.457 47.7155C153.696 47.577 153.888 47.3755 154.033 47.111C154.184 46.8402 154.26 46.5253 154.26 46.1663Z" fill="url(#paint4_linear_37_9651)"/>
<defs>
<linearGradient id="paint0_linear_37_9651" x1="32.0068" y1="0" x2="32.0068" y2="49.0017" gradientUnits="userSpaceOnUse">
<stop stop-color="#0087B3"/>
<stop offset="1" stop-color="#0B3A4B"/>
</linearGradient>
<linearGradient id="paint1_linear_37_9651" x1="31.8851" y1="34.2378" x2="31.8851" y2="59.7546" gradientUnits="userSpaceOnUse">
<stop stop-color="#0087B3"/>
<stop offset="1" stop-color="#0B3A4B"/>
</linearGradient>
<linearGradient id="paint2_linear_37_9651" x1="46.9949" y1="49.0015" x2="46.9949" y2="34.6018" gradientUnits="userSpaceOnUse">
<stop stop-color="#2C4B78"/>
<stop offset="1" stop-color="#162A3B"/>
</linearGradient>
<linearGradient id="paint3_linear_37_9651" x1="72.3342" y1="27" x2="191.334" y2="27" gradientUnits="userSpaceOnUse">
<stop stop-color="#0A93BA"/>
<stop offset="1" stop-color="#0B3A4B"/>
</linearGradient>
<linearGradient id="paint4_linear_37_9651" x1="114.334" y1="38.7736" x2="114.334" y2="52.7736" gradientUnits="userSpaceOnUse">
<stop stop-color="#0B3C4D"/>
<stop offset="1" stop-color="#0A91B8"/>
</linearGradient>
</defs>
</svg>
